<?xml version="1.0" encoding="UTF-8"?>
<!DOCTYPE svg PUBLIC "-//W3C//DTD SVG 1.1//EN" "http://www.w3.org/Graphics/SVG/1.1/DTD/svg11.dtd">
<!-- Creator: CorelDRAW -->
<svg xmlns="http://www.w3.org/2000/svg" xml:space="preserve" width="3125px" height="3125px" version="1.1" style="shape-rendering:geometricPrecision; text-rendering:geometricPrecision; image-rendering:optimizeQuality; fill-rule:evenodd; clip-rule:evenodd"
viewBox="0 0 3810.94 3810.94"
 xmlns:xlink="http://www.w3.org/1999/xlink"
 xmlns:xodm="http://www.corel.com/coreldraw/odm/2003">
 <defs>
  <style type="text/css">
   <![CDATA[
    .fil1 {fill:#FEFEFE}
    .fil0 {fill:black}
    .fil2 {fill:#F2232C}
   ]]>
  </style>
 </defs>
 <g id="Camada_x0020_1">
  <metadata id="CorelCorpID_0Corel-Layer"/>
  <rect class="fil0" width="3810.94" height="3810.94" rx="63.99" ry="951.08"/>
  <g id="_3123927597856">
   <path class="fil1" d="M1902.31 1195.19c-12.07,-5.48 -127.16,-102.99 -147.72,-119.8 -26.58,-21.73 -48.07,-40.48 -74.6,-61.19 -25.91,-20.22 -47.35,-45.96 -100.22,-32.52 -49.02,12.47 -106.35,85.08 -18.53,161.69 22.33,19.48 137.39,112.18 146.39,125.58 -118.84,9.06 -228.71,15.01 -345.25,29.47 -124.46,15.45 -206.7,23.75 -296.77,84.24 -73.14,49.12 -128.33,112.33 -165.17,210.81 -27.97,74.78 -48.07,237.54 -53.4,326.45 -11.65,194.53 -2.23,521.15 69.76,679.12 36.76,80.68 107.92,154.17 181.84,194.36 82.2,44.69 202.88,59.01 309.44,68.27 213.21,18.55 520.04,38.05 730.12,19.33 47.78,-4.26 133.99,-2.57 174.99,-13.89 113.33,-31.3 96.65,-199.55 -20.83,-204.47 -51.79,-2.16 -129.57,7.42 -184.65,10.23 -236.71,12.09 -486.55,2.68 -718.89,-24.47 -103.28,-12.07 -203.46,-13.08 -268.26,-110.35 -84.36,-126.61 -72.39,-522.77 -58.61,-677.36 29.44,-330.39 119.07,-334.76 392.63,-362.78 117.95,-12.08 240.76,-19.88 360.69,-21.3 125.3,-1.48 247.53,-0.43 372,7.32 116.63,7.26 227.84,20.75 342.06,35.39 100.06,12.83 177.89,88.47 195.07,184.39 42.89,239.35 45.73,454.49 9.03,696.08 -8.39,55.23 -24.78,110.51 11.42,150.37 32.08,35.33 91.53,50.65 137.47,15.61 39.82,-30.38 45.48,-70.25 55.65,-132.17 29.23,-177.89 37.64,-349.46 23.26,-530.97 -17.29,-218.08 -39.19,-409.46 -228.15,-527.97 -89.84,-56.35 -180.72,-64.65 -299.16,-79.6 -111.91,-14.13 -240.9,-24.44 -354.44,-26.64 3.82,-10.56 150.46,-167.57 178.15,-194.33 84.72,-81.87 -37.17,-221.47 -135.08,-110.69l-72.55 77.16c-49.81,50.87 -97.16,105.27 -147.69,154.63z"/>
   <path class="fil1" d="M1709.74 1750.77c-51.55,11.29 -58.5,44.56 -58.26,99.55l-1 473.52c-0.17,45.64 16.76,87.34 67.27,89.61 33.9,1.52 82.7,-32.57 108.39,-47.34 25.67,-14.77 388.02,-218.6 399.73,-230.53 29.8,-30.33 26.18,-84.95 -6.59,-107.84 -14.2,-9.91 -36.82,-21.45 -50.53,-29.55l-247.99 -145.43c-33.95,-19.76 -65.75,-39 -98.77,-57.9 -27.44,-15.72 -75.05,-52.23 -112.25,-44.09z"/>
   <path class="fil2" d="M2520.13 2727.7c5.28,50.82 48.6,91.51 106.17,86.86 51.39,-4.15 94.25,-49.65 88.24,-107.87 -13.08,-126.82 -207.67,-106.79 -194.41,21.01z"/>
  </g>
 </g>
</svg>
